<?xml version="1.0" encoding="UTF-8" standalone="no"?>
<!DOCTYPE svg PUBLIC "-//W3C//DTD SVG 1.1//EN" "http://www.w3.org/Graphics/SVG/1.1/DTD/svg11.dtd">
<svg width="32px" height="32px" version="1.1" xmlns="http://www.w3.org/2000/svg" xmlnsXlink="http://www.w3.org/1999/xlink" xmlSpace="preserve" xmlnsserif="http://www.serif.com/" style="fill-rule:evenodd;clip-rule:evenodd;stroke-linejoin:round;stroke-miterlimit:2;">
    <path d="M26.677,9.714L21.333,9.714C21.305,9.715 21.276,9.716 21.247,9.716C20.03,9.716 19.028,8.706 19.028,7.479C19.028,7.462 19.028,7.446 19.029,7.43L19.029,1.977L5.469,1.977C5.428,1.978 5.39,1.995 5.362,2.024C5.328,2.05 5.31,2.092 5.315,2.134L5.315,29.853C5.319,29.893 5.335,29.931 5.362,29.961C5.388,29.992 5.428,30.01 5.469,30.008L26.521,30.008C26.568,30.008 26.565,29.984 26.589,29.961C26.612,29.937 26.677,29.887 26.677,29.853L26.677,9.714ZM28.617,30.475C28.616,31.304 27.94,31.986 27.117,31.988L4.859,31.988C4.037,31.986 3.361,31.304 3.359,30.475L3.359,1.512C3.358,1.111 3.517,0.726 3.799,0.444C4.081,0.16 4.462,0.001 4.859,0L20.026,0C20.257,0.002 20.481,0.078 20.667,0.215L28.414,8.123C28.605,8.293 28.684,8.558 28.617,8.806L28.617,30.475ZM20.833,7.27L20.721,2.528L26.214,8.139L21.49,7.926C21.479,7.927 21.468,7.927 21.458,7.927C21.115,7.927 20.833,7.642 20.833,7.297C20.833,7.288 20.833,7.279 20.833,7.27Z" style="fill-rule:nonzero;"/>
    <path d="M1.747,12.15L30.253,12.15C31.211,12.153 31.999,12.948 32,13.915L32,25.755C31.997,26.72 31.21,27.514 30.253,27.517L1.747,27.517C0.789,27.514 0.001,26.719 -0,25.752L0,13.915C0.003,12.949 0.79,12.156 1.747,12.153L1.747,12.15Z" style="fill:rgb(27,94,190);fill-rule:nonzero;"/>
    <path d="M3.491,15.836L7.129,15.836C7.846,15.836 8.425,15.934 8.867,16.131C9.308,16.327 9.673,16.608 9.961,16.975C10.249,17.342 10.458,17.769 10.588,18.256C10.718,18.743 10.783,19.258 10.783,19.803C10.783,20.657 10.686,21.319 10.493,21.79C10.301,22.26 10.033,22.654 9.691,22.972C9.348,23.29 8.981,23.502 8.588,23.607C8.051,23.752 7.565,23.825 7.129,23.825L3.491,23.825L3.491,15.836ZM5.94,17.646L5.94,22.01L6.54,22.01C7.051,22.01 7.415,21.953 7.631,21.839C7.848,21.724 8.017,21.524 8.14,21.239C8.262,20.954 8.323,20.492 8.323,19.852C8.323,19.006 8.186,18.427 7.912,18.114C7.639,17.802 7.185,17.646 6.55,17.646L5.94,17.646Z" style="fill:white;fill-rule:nonzero;"/>
    <path d="M11.761,19.836C11.761,18.532 12.121,17.517 12.842,16.79C13.563,16.063 14.566,15.7 15.853,15.7C17.172,15.7 18.188,16.057 18.901,16.771C19.615,17.485 19.972,18.485 19.972,19.771C19.972,20.704 19.816,21.47 19.504,22.068C19.192,22.665 18.742,23.13 18.153,23.463C17.564,23.795 16.829,23.961 15.95,23.961C15.056,23.961 14.317,23.818 13.731,23.531C13.146,23.244 12.671,22.79 12.307,22.168C11.943,21.547 11.761,20.77 11.761,19.836ZM14.21,19.847C14.21,20.654 14.358,21.233 14.656,21.585C14.953,21.938 15.357,22.114 15.869,22.114C16.395,22.114 16.802,21.941 17.091,21.596C17.379,21.251 17.523,20.632 17.523,19.738C17.523,18.986 17.373,18.437 17.072,18.09C16.771,17.743 16.363,17.569 15.847,17.569C15.354,17.569 14.957,17.745 14.658,18.098C14.359,18.45 14.21,19.033 14.21,19.847Z" style="fill:white;fill-rule:nonzero;"/>
    <path d="M26.566,20.555L28.712,21.209C28.568,21.816 28.341,22.323 28.031,22.73C27.721,23.137 27.336,23.444 26.877,23.651C26.417,23.858 25.833,23.961 25.123,23.961C24.262,23.961 23.558,23.835 23.012,23.583C22.466,23.33 21.995,22.887 21.599,22.251C21.202,21.616 21.004,20.803 21.004,19.812C21.004,18.49 21.353,17.475 22.05,16.765C22.747,16.055 23.734,15.7 25.009,15.7C26.007,15.7 26.792,15.904 27.363,16.31C27.934,16.717 28.359,17.342 28.636,18.185L26.474,18.67C26.398,18.427 26.319,18.249 26.236,18.136C26.099,17.947 25.932,17.802 25.734,17.7C25.535,17.598 25.314,17.547 25.069,17.547C24.514,17.547 24.089,17.772 23.793,18.222C23.57,18.556 23.458,19.08 23.458,19.795C23.458,20.681 23.591,21.288 23.858,21.616C24.125,21.944 24.499,22.108 24.982,22.108C25.451,22.108 25.805,21.976 26.044,21.711C26.284,21.445 26.458,21.06 26.566,20.555Z" style="fill:white;fill-rule:nonzero;"/>
</svg>
