<?xml version="1.0" encoding="UTF-8" standalone="no"?>
<!DOCTYPE svg PUBLIC "-//W3C//DTD SVG 1.1//EN" "http://www.w3.org/Graphics/SVG/1.1/DTD/svg11.dtd">
<svg width="254px" height="25px" version="1.1" xmlns="http://www.w3.org/2000/svg" xmlnsXlink="http://www.w3.org/1999/xlink" xmlSpace="preserve" xmlnsserif="http://www.serif.com/" style="fill-rule:evenodd;clip-rule:evenodd;stroke-linejoin:round;stroke-miterlimit:2;">
    <path d="M-0,19.418L-0,0.326L7.157,0.326C8.615,0.326 9.784,0.519 10.665,0.905C11.545,1.292 12.235,1.886 12.734,2.689C13.233,3.492 13.482,4.332 13.482,5.209C13.482,6.026 13.261,6.794 12.818,7.515C12.376,8.235 11.708,8.817 10.814,9.26C11.968,9.598 12.855,10.176 13.476,10.992C14.096,11.808 14.406,12.772 14.406,13.883C14.406,14.777 14.217,15.609 13.84,16.377C13.463,17.145 12.996,17.738 12.441,18.155C11.886,18.572 11.19,18.886 10.352,19.099C9.515,19.312 8.489,19.418 7.275,19.418L-0,19.418ZM2.525,8.348L6.65,8.348C7.769,8.348 8.572,8.274 9.057,8.127C9.699,7.936 10.183,7.619 10.509,7.176C10.834,6.733 10.997,6.177 10.997,5.509C10.997,4.875 10.845,4.317 10.541,3.835C10.237,3.354 9.804,3.024 9.24,2.846C8.676,2.668 7.708,2.579 6.338,2.579L2.525,2.579L2.525,8.348ZM2.525,17.165L7.275,17.165C8.09,17.165 8.663,17.135 8.992,17.074C9.574,16.97 10.06,16.796 10.45,16.553C10.84,16.31 11.161,15.956 11.413,15.491C11.665,15.027 11.79,14.491 11.79,13.883C11.79,13.171 11.608,12.553 11.244,12.027C10.879,11.502 10.374,11.133 9.728,10.92C9.081,10.708 8.151,10.601 6.936,10.601L2.525,10.601L2.525,17.165Z" style="fill-rule:nonzero;"/>
    <path d="M26.808,11.93L26.808,9.69L34.89,9.676L34.89,16.761C33.649,17.751 32.369,18.496 31.051,18.995C29.732,19.494 28.378,19.744 26.99,19.744C25.116,19.744 23.414,19.342 21.882,18.539C20.351,17.736 19.195,16.575 18.414,15.055C17.633,13.536 17.243,11.838 17.243,9.963C17.243,8.105 17.631,6.371 18.408,4.76C19.184,3.15 20.301,1.954 21.759,1.172C23.216,0.391 24.895,0 26.795,0C28.175,0 29.422,0.224 30.536,0.671C31.651,1.118 32.525,1.741 33.159,2.54C33.792,3.338 34.274,4.38 34.603,5.665L32.326,6.29C32.04,5.318 31.684,4.554 31.259,3.998C30.834,3.443 30.226,2.998 29.437,2.663C28.647,2.329 27.771,2.162 26.808,2.162C25.654,2.162 24.656,2.338 23.815,2.689C22.973,3.041 22.295,3.503 21.778,4.076C21.262,4.649 20.861,5.279 20.575,5.965C20.089,7.146 19.846,8.426 19.846,9.807C19.846,11.508 20.139,12.932 20.724,14.078C21.31,15.225 22.162,16.075 23.281,16.631C24.401,17.187 25.589,17.465 26.847,17.465C27.94,17.465 29.007,17.254 30.048,16.833C31.09,16.412 31.879,15.963 32.417,15.485L32.417,11.93L26.808,11.93Z" style="fill-rule:nonzero;"/>
    <path d="M38.69,19.418L38.69,0.326L41.214,0.326L41.214,8.166L51.131,8.166L51.131,0.326L53.655,0.326L53.655,19.418L51.131,19.418L51.131,10.419L41.214,10.419L41.214,19.418L38.69,19.418Z" style="fill-rule:nonzero;"/>
    <rect x="56.648" y="11.33" width="7.197" height="2.357" style="fill-rule:nonzero;"/>
    <path d="M66.786,19.418L66.786,0.326L80.58,0.326L80.58,2.579L69.311,2.579L69.311,8.426L79.865,8.426L79.865,10.666L69.311,10.666L69.311,17.165L81.023,17.165L81.023,19.418L66.786,19.418Z" style="fill-rule:nonzero;"/>
    <path d="M84.211,19.418L84.211,5.587L86.319,5.587L86.319,7.554C87.334,6.034 88.801,5.275 90.718,5.275C91.551,5.275 92.317,5.424 93.015,5.724C93.713,6.023 94.236,6.416 94.583,6.902C94.93,7.389 95.173,7.966 95.312,8.635C95.399,9.069 95.442,9.828 95.442,10.914L95.442,19.418L93.099,19.418L93.099,11.005C93.099,10.05 93.008,9.336 92.826,8.863C92.644,8.389 92.321,8.012 91.857,7.729C91.393,7.447 90.848,7.306 90.223,7.306C89.226,7.306 88.365,7.623 87.64,8.257C86.916,8.891 86.554,10.093 86.554,11.864L86.554,19.418L84.211,19.418Z" style="fill-rule:nonzero;"/>
    <path d="M104.148,17.321L104.486,19.392C103.827,19.531 103.237,19.6 102.717,19.6C101.866,19.6 101.207,19.466 100.738,19.197C100.27,18.928 99.94,18.574 99.749,18.135C99.559,17.697 99.463,16.774 99.463,15.368L99.463,7.41L97.745,7.41L97.745,5.587L99.463,5.587L99.463,2.162L101.793,0.755L101.793,5.587L104.148,5.587L104.148,7.41L101.793,7.41L101.793,15.498C101.793,16.167 101.834,16.596 101.916,16.787C101.999,16.978 102.133,17.13 102.32,17.243C102.506,17.356 102.773,17.412 103.12,17.412C103.38,17.412 103.723,17.382 104.148,17.321Z" style="fill-rule:nonzero;"/>
    <path d="M105.501,15.29L107.818,14.925C107.948,15.854 108.31,16.566 108.905,17.061C109.499,17.556 110.33,17.803 111.397,17.803C112.472,17.803 113.271,17.584 113.791,17.145C114.312,16.707 114.572,16.193 114.572,15.602C114.572,15.073 114.342,14.656 113.882,14.352C113.561,14.144 112.763,13.879 111.488,13.557C109.77,13.123 108.579,12.748 107.916,12.431C107.252,12.114 106.749,11.676 106.406,11.116C106.063,10.556 105.892,9.937 105.892,9.26C105.892,8.643 106.033,8.072 106.315,7.547C106.597,7.022 106.981,6.586 107.467,6.238C107.831,5.969 108.328,5.741 108.957,5.555C109.586,5.368 110.26,5.275 110.98,5.275C112.065,5.275 113.017,5.431 113.837,5.743C114.657,6.056 115.262,6.479 115.652,7.013C116.043,7.547 116.311,8.261 116.459,9.156L114.169,9.468C114.064,8.756 113.763,8.2 113.264,7.801C112.765,7.402 112.06,7.202 111.149,7.202C110.074,7.202 109.306,7.38 108.846,7.736C108.386,8.092 108.156,8.509 108.156,8.986C108.156,9.29 108.252,9.564 108.443,9.807C108.633,10.059 108.933,10.267 109.341,10.432C109.575,10.519 110.264,10.718 111.41,11.031C113.067,11.474 114.223,11.836 114.878,12.118C115.533,12.401 116.047,12.811 116.42,13.349C116.793,13.887 116.98,14.556 116.98,15.355C116.98,16.136 116.752,16.872 116.296,17.562C115.841,18.252 115.184,18.786 114.325,19.164C113.466,19.542 112.494,19.731 111.41,19.731C109.614,19.731 108.245,19.357 107.304,18.611C106.363,17.864 105.762,16.757 105.501,15.29Z" style="fill-rule:nonzero;"/>
    <path d="M128.783,14.352L131.086,14.651C130.835,16.24 130.191,17.484 129.154,18.383C128.117,19.281 126.844,19.731 125.334,19.731C123.443,19.731 121.923,19.112 120.773,17.875C119.623,16.638 119.049,14.864 119.049,12.555C119.049,11.061 119.296,9.755 119.79,8.635C120.285,7.515 121.038,6.675 122.048,6.115C123.059,5.555 124.159,5.275 125.347,5.275C126.848,5.275 128.076,5.654 129.03,6.414C129.984,7.174 130.596,8.253 130.865,9.65L128.588,10.002C128.371,9.073 127.987,8.374 127.436,7.905C126.885,7.436 126.219,7.202 125.438,7.202C124.258,7.202 123.3,7.625 122.562,8.472C121.825,9.318 121.456,10.658 121.456,12.49C121.456,14.348 121.812,15.698 122.523,16.54C123.235,17.382 124.163,17.803 125.308,17.803C126.228,17.803 126.996,17.521 127.612,16.957C128.228,16.392 128.618,15.524 128.783,14.352Z" style="fill-rule:nonzero;"/>
    <path d="M133.09,19.418L133.09,0.326L135.433,0.326L135.433,7.176C136.526,5.908 137.905,5.275 139.571,5.275C140.595,5.275 141.484,5.476 142.239,5.88C142.994,6.284 143.534,6.842 143.859,7.554C144.184,8.266 144.347,9.299 144.347,10.653L144.347,19.418L142.005,19.418L142.005,10.653C142.005,9.481 141.751,8.628 141.243,8.094C140.736,7.56 140.018,7.293 139.09,7.293C138.396,7.293 137.743,7.473 137.131,7.834C136.519,8.194 136.084,8.682 135.823,9.299C135.563,9.915 135.433,10.766 135.433,11.851L135.433,19.418L133.09,19.418Z" style="fill-rule:nonzero;"/>
    <path d="M157.374,14.964L159.794,15.264C159.413,16.679 158.706,17.777 157.673,18.559C156.641,19.34 155.322,19.731 153.717,19.731C151.696,19.731 150.093,19.108 148.908,17.862C147.724,16.616 147.132,14.869 147.132,12.62C147.132,10.293 147.731,8.487 148.928,7.202C150.125,5.917 151.678,5.275 153.587,5.275C155.435,5.275 156.944,5.904 158.116,7.163C159.287,8.422 159.872,10.193 159.872,12.477C159.872,12.615 159.868,12.824 159.859,13.102L149.553,13.102C149.639,14.621 150.069,15.785 150.841,16.592C151.613,17.399 152.576,17.803 153.73,17.803C154.589,17.803 155.322,17.577 155.929,17.126C156.537,16.674 157.018,15.954 157.374,14.964ZM149.683,11.174L157.4,11.174C157.296,10.011 157.001,9.138 156.515,8.556C155.769,7.653 154.801,7.202 153.613,7.202C152.537,7.202 151.633,7.562 150.9,8.283C150.166,9.004 149.761,9.967 149.683,11.174Z" style="fill-rule:nonzero;"/>
    <path d="M162.748,3.021L162.748,0.326L165.091,0.326L165.091,3.021L162.748,3.021ZM162.748,19.418L162.748,5.587L165.091,5.587L165.091,19.418L162.748,19.418Z" style="fill-rule:nonzero;"/>
    <path d="M177.623,19.418L177.623,17.673C176.747,19.045 175.458,19.731 173.758,19.731C172.656,19.731 171.643,19.427 170.719,18.819C169.795,18.211 169.08,17.363 168.572,16.273C168.065,15.183 167.811,13.931 167.811,12.516C167.811,11.135 168.041,9.883 168.5,8.758C168.96,7.634 169.65,6.772 170.57,6.173C171.489,5.574 172.517,5.275 173.654,5.275C174.487,5.275 175.229,5.45 175.879,5.802C176.53,6.154 177.059,6.612 177.467,7.176L177.467,0.326L179.796,0.326L179.796,19.418L177.623,19.418ZM170.218,12.516C170.218,14.287 170.591,15.611 171.337,16.488C172.084,17.365 172.964,17.803 173.979,17.803C175.003,17.803 175.873,17.384 176.588,16.546C177.304,15.709 177.662,14.43 177.662,12.711C177.662,10.818 177.298,9.429 176.569,8.543C175.84,7.658 174.942,7.215 173.875,7.215C172.834,7.215 171.964,7.64 171.266,8.491C170.567,9.342 170.218,10.684 170.218,12.516Z" style="fill-rule:nonzero;"/>
    <path d="M192.537,19.418L192.537,17.386C191.461,18.949 189.999,19.731 188.151,19.731C187.336,19.731 186.574,19.574 185.867,19.262C185.16,18.949 184.635,18.556 184.292,18.083C183.95,17.61 183.709,17.03 183.57,16.345C183.475,15.884 183.427,15.155 183.427,14.157L183.427,5.587L185.77,5.587L185.77,13.258C185.77,14.482 185.817,15.307 185.913,15.732C186.06,16.349 186.373,16.833 186.85,17.185C187.327,17.536 187.917,17.712 188.62,17.712C189.322,17.712 189.982,17.532 190.598,17.172C191.214,16.811 191.65,16.321 191.905,15.7C192.161,15.079 192.289,14.178 192.289,12.997L192.289,5.587L194.632,5.587L194.632,19.418L192.537,19.418Z" style="fill-rule:nonzero;"/>
    <path d="M198.302,19.418L198.302,5.587L200.41,5.587L200.41,7.554C201.425,6.034 202.891,5.275 204.808,5.275C205.641,5.275 206.407,5.424 207.105,5.724C207.804,6.023 208.327,6.416 208.674,6.902C209.021,7.389 209.263,7.966 209.402,8.635C209.489,9.069 209.532,9.828 209.532,10.914L209.532,19.418L207.19,19.418L207.19,11.005C207.19,10.05 207.099,9.336 206.917,8.863C206.735,8.389 206.411,8.012 205.947,7.729C205.483,7.447 204.939,7.306 204.314,7.306C203.316,7.306 202.455,7.623 201.731,8.257C201.006,8.891 200.644,10.093 200.644,11.864L200.644,19.418L198.302,19.418Z" style="fill-rule:nonzero;"/>
    <path d="M212.695,20.564L214.972,20.903C215.068,21.606 215.332,22.118 215.766,22.44C216.347,22.874 217.141,23.091 218.147,23.091C219.232,23.091 220.069,22.874 220.659,22.44C221.249,22.005 221.648,21.398 221.856,20.616C221.978,20.139 222.034,19.136 222.026,17.608C221.002,18.815 219.726,19.418 218.2,19.418C216.3,19.418 214.829,18.732 213.788,17.36C212.747,15.989 212.226,14.343 212.226,12.424C212.226,11.105 212.465,9.887 212.942,8.771C213.419,7.656 214.111,6.794 215.018,6.186C215.924,5.578 216.989,5.275 218.213,5.275C219.844,5.275 221.188,5.934 222.247,7.254L222.247,5.587L224.407,5.587L224.407,17.543C224.407,19.696 224.188,21.222 223.75,22.12C223.312,23.019 222.618,23.729 221.668,24.25C220.718,24.771 219.549,25.031 218.16,25.031C216.512,25.031 215.18,24.66 214.165,23.918C213.15,23.175 212.66,22.058 212.695,20.564ZM214.634,12.255C214.634,14.07 214.994,15.394 215.714,16.227C216.434,17.061 217.336,17.478 218.421,17.478C219.497,17.478 220.399,17.063 221.128,16.234C221.856,15.405 222.221,14.104 222.221,12.333C222.221,10.64 221.845,9.364 221.095,8.504C220.345,7.645 219.44,7.215 218.382,7.215C217.341,7.215 216.456,7.638 215.727,8.485C214.998,9.331 214.634,10.588 214.634,12.255Z" style="fill-rule:nonzero;"/>
    <path d="M237.408,14.964L239.828,15.264C239.446,16.679 238.739,17.777 237.707,18.559C236.675,19.34 235.356,19.731 233.751,19.731C231.729,19.731 230.126,19.108 228.942,17.862C227.758,16.616 227.166,14.869 227.166,12.62C227.166,10.293 227.765,8.487 228.962,7.202C230.159,5.917 231.712,5.275 233.621,5.275C235.469,5.275 236.978,5.904 238.149,7.163C239.321,8.422 239.906,10.193 239.906,12.477C239.906,12.615 239.902,12.824 239.893,13.102L229.586,13.102C229.673,14.621 230.103,15.785 230.875,16.592C231.647,17.399 232.61,17.803 233.764,17.803C234.623,17.803 235.356,17.577 235.963,17.126C236.57,16.674 237.052,15.954 237.408,14.964ZM229.717,11.174L237.434,11.174C237.33,10.011 237.035,9.138 236.549,8.556C235.803,7.653 234.835,7.202 233.647,7.202C232.571,7.202 231.666,7.562 230.933,8.283C230.2,9.004 229.795,9.967 229.717,11.174Z" style="fill-rule:nonzero;"/>
    <path d="M242.769,19.418L242.769,5.587L244.877,5.587L244.877,7.554C245.893,6.034 247.359,5.275 249.276,5.275C250.109,5.275 250.875,5.424 251.573,5.724C252.271,6.023 252.794,6.416 253.141,6.902C253.488,7.389 253.731,7.966 253.87,8.635C253.957,9.069 254,9.828 254,10.914L254,19.418L251.658,19.418L251.658,11.005C251.658,10.05 251.566,9.336 251.384,8.863C251.202,8.389 250.879,8.012 250.415,7.729C249.951,7.447 249.406,7.306 248.782,7.306C247.784,7.306 246.923,7.623 246.198,8.257C245.474,8.891 245.112,10.093 245.112,11.864L245.112,19.418L242.769,19.418Z" style="fill-rule:nonzero;"/>
</svg>
