<?xml version="1.0" encoding="UTF-8" standalone="no"?>
<!DOCTYPE svg PUBLIC "-//W3C//DTD SVG 1.1//EN" "http://www.w3.org/Graphics/SVG/1.1/DTD/svg11.dtd">
<svg width="32px" height="32px" version="1.1" xmlns="http://www.w3.org/2000/svg" xmlnsXlink="http://www.w3.org/1999/xlink" xmlSpace="preserve" xmlnsserif="http://www.serif.com/" style="fill-rule:evenodd;clip-rule:evenodd;stroke-linejoin:round;stroke-miterlimit:2;">
    <path d="M26.677,9.709L21.333,9.709C21.305,9.711 21.276,9.711 21.247,9.711C20.03,9.711 19.028,8.702 19.028,7.475C19.028,7.459 19.028,7.443 19.029,7.426L19.029,1.976L5.469,1.976C5.428,1.977 5.39,1.994 5.362,2.023C5.328,2.049 5.31,2.091 5.315,2.133L5.315,29.84C5.319,29.88 5.335,29.917 5.362,29.947C5.388,29.979 5.428,29.996 5.469,29.994L26.521,29.994C26.568,29.994 26.565,29.971 26.589,29.947C26.612,29.924 26.677,29.874 26.677,29.84L26.677,9.709ZM28.617,30.461C28.616,31.29 27.94,31.972 27.117,31.973L4.859,31.973C4.037,31.972 3.361,31.29 3.359,30.461L3.359,1.512C3.358,1.111 3.517,0.726 3.799,0.443C4.081,0.16 4.462,0.001 4.859,0L20.026,0C20.257,0.002 20.481,0.078 20.667,0.215L28.414,8.119C28.605,8.289 28.684,8.554 28.617,8.801L28.617,30.461ZM20.833,7.266L20.721,2.527L26.214,8.135L21.49,7.922C21.479,7.923 21.468,7.923 21.458,7.923C21.115,7.923 20.833,7.639 20.833,7.293C20.833,7.284 20.833,7.275 20.833,7.266Z" style="fill:white;fill-rule:nonzero;"/>
    <path d="M1.747,12.145L30.253,12.145C31.211,12.148 31.999,12.942 32,13.908L32,25.743C31.997,26.708 31.21,27.501 30.253,27.504L1.747,27.504C0.789,27.501 0.001,26.706 -0,25.741L0,13.908C0.003,12.943 0.79,12.15 1.747,12.147L1.747,12.145Z" style="fill:rgb(255,0,0);fill-rule:nonzero;"/>
    <path d="M4.253,15.687L8.471,15.687C9.391,15.687 10.078,15.905 10.539,16.346C11,16.787 11.224,17.417 11.224,18.23C11.265,18.961 10.992,19.676 10.474,20.19C9.977,20.663 9.214,20.896 8.19,20.896L6.797,20.896L6.797,23.959L4.253,23.959L4.253,15.687ZM6.797,19.222L7.422,19.222C7.789,19.257 8.156,19.164 8.464,18.96C8.657,18.797 8.766,18.555 8.76,18.301C8.765,18.054 8.671,17.816 8.5,17.64C8.328,17.459 8.003,17.377 7.523,17.377L6.797,17.377L6.797,19.222ZM12.578,15.687L16.349,15.687C16.964,15.665 17.577,15.769 18.151,15.992C18.594,16.184 18.984,16.485 19.284,16.866C19.587,17.253 19.808,17.7 19.932,18.178C20.07,18.701 20.138,19.24 20.135,19.781C20.165,20.48 20.063,21.178 19.836,21.838C19.655,22.307 19.373,22.729 19.01,23.074C18.689,23.386 18.296,23.612 17.867,23.733C17.375,23.875 16.866,23.951 16.354,23.959L12.578,23.959L12.578,15.687ZM15.104,17.558L15.104,22.077L15.729,22.077C16.116,22.102 16.504,22.041 16.865,21.899C17.103,21.758 17.287,21.54 17.385,21.279C17.538,20.816 17.602,20.329 17.576,19.841C17.576,18.967 17.434,18.368 17.151,18.044C16.867,17.721 16.393,17.558 15.734,17.558L15.104,17.558ZM21.466,15.687L27.74,15.687L27.74,17.467L24.021,17.467L24.021,18.91L27.208,18.91L27.208,20.587L24.021,20.587L24.021,23.959L21.474,23.959L21.474,15.687L21.466,15.687Z" style="fill:white;fill-rule:nonzero;"/>
</svg>
